<?xml version="1.0" encoding="UTF-8" standalone="no"?>
<!-- Created with Inkscape (http://www.inkscape.org/) -->

<svg
   version="1.1"
   id="svg1"
   width="336.01587"
   height="124.9397"
   viewBox="0 0 336.01587 124.9397"
   xmlns="http://www.w3.org/2000/svg"
   xmlns:svg="http://www.w3.org/2000/svg">
  <defs
     id="defs1" />
  <g
     id="layer-MC0"
     transform="translate(-111.59115,-641.12513)">
    <path
       id="path44"
       d="m 166.93887,655.39294 -12.37333,12.368 c -17.31734,2.77333 -30.54934,17.77333 -30.57467,35.86933 H 111.6482 c 0.0267,-26.88666 21.83334,-48.67733 48.72934,-48.67733 2.224,0 4.41066,0.152 6.56133,0.44"
       style="fill:#ffffff;fill-opacity:1;fill-rule:nonzero;stroke:none;stroke-width:1.33333" />
    <path
       id="path45"
       d="m 153.80513,751.7868 12.37333,-12.368 c 17.31734,-2.77333 30.54934,-17.77333 30.57467,-35.86933 h 12.34267 c -0.0267,26.88666 -21.83334,48.67733 -48.72934,48.67733 -2.224,0 -4.41066,-0.152 -6.56133,-0.44"
       style="fill:#ffffff;fill-opacity:1;fill-rule:nonzero;stroke:none;stroke-width:1.33333" />
    <path
       id="path46"
       d="m 196.8466,651.628 -44.05467,43.968 c -2.404,2.4 -6.29733,2.396 -8.69733,-0.008 v 0 c -2.39867,-2.404 -2.396,-6.29867 0.009,-8.69733 l 44.05334,-43.968 c 2.404,-2.4 6.29866,-2.396 8.69733,0.008 v 0 c 2.4,2.404 2.396,6.29866 -0.008,8.69733"
       style="fill:#ffffff;fill-opacity:1;fill-rule:nonzero;stroke:none;stroke-width:1.33333" />
    <path
       id="path47"
       d="m 111.59113,709.78094 60.85467,0.0173 c 3.396,0 6.14933,2.75467 6.14799,6.15067 -0.001,3.39733 -2.75466,6.14933 -6.15199,6.14933 l -48.55334,-0.0147 c -6.79333,-10e-4 -12.29866,-5.50934 -12.29733,-12.30267"
       style="fill:#ffffff;fill-opacity:1;fill-rule:nonzero;stroke:none;stroke-width:1.33333" />
    <path
       id="path48"
       d="m 124.04527,755.562 44.05467,-43.968 c 2.404,-2.4 6.29733,-2.396 8.69733,0.008 2.39867,2.404 2.396,6.29867 -0.009,8.69733 l -44.05334,43.968 c -2.404,2.4 -6.29866,2.396 -8.69733,-0.008 -2.4,-2.404 -2.396,-6.29866 0.008,-8.69733"
       style="fill:#ffffff;fill-opacity:1;fill-rule:nonzero;stroke:none;stroke-width:1.33333" />
    <path
       id="path49"
       d="m 209.0446,697.40907 -60.59867,-0.0173 c -3.396,0 -6.14799,-2.75467 -6.14799,-6.15067 10e-4,-3.39733 2.75466,-6.14933 6.15199,-6.14933 l 48.29734,0.0147 c 6.79333,0.001 12.29866,5.50934 12.29733,12.30267"
       style="fill:#ffffff;fill-opacity:1;fill-rule:nonzero;stroke:none;stroke-width:1.33333" />
    <path
       id="path50"
       d="M 252.89596,718.46558 237.625,669.39121 h 15.07483 c 0.25546,0 0.48124,0.16645 0.55541,0.41036 l 12.69667,41.08787 c 0.54221,1.55412 1.63159,2.33036 3.26317,2.33036 h 3.14779 l 13.28834,-43.71322 h 15.62033 l -18.06771,58.28374 H 265.4855 c -2.95496,0 -5.57704,-0.8537 -7.86784,-2.56439 -2.29411,-1.70903 -3.868,-3.96358 -4.7217,-6.76035"
       style="fill:#ffffff;fill-opacity:1;fill-rule:nonzero;stroke:none;stroke-width:1.64806" />
    <path
       id="path51"
       d="m 342.30238,681.04763 h -4.66237 c -3.9636,0 -7.22676,0.97236 -9.79114,2.91377 -2.56439,1.94306 -3.84824,4.8964 -3.84824,8.85998 v 11.53974 c 0,3.9636 1.28385,6.93505 3.84824,8.91767 2.56438,1.98098 5.82754,2.97146 9.79114,2.97146 h 4.66237 c 4.11851,0 7.41958,-1.00861 9.90815,-3.03079 2.48693,-2.01887 3.73122,-5.01176 3.73122,-8.97534 v -11.19036 c 0,-4.11851 -1.28384,-7.1493 -3.84823,-9.09236 -2.56438,-1.94141 -5.82755,-2.91377 -9.79114,-2.91377 m 1.63158,-12.35553 c 3.73122,0 7.18721,0.52408 10.37455,1.57389 3.18572,1.04817 5.98413,2.56439 8.39359,4.54537 2.40782,1.98096 4.2932,4.37066 5.65285,7.16907 1.35965,2.79676 2.04031,5.94456 2.04031,9.44175 v 14.33815 c 0,3.26316 -0.6411,6.29395 -1.92329,9.09236 -1.28219,2.79677 -3.07034,5.22601 -5.3628,7.28445 -2.29245,2.06007 -5.05131,3.67187 -8.27492,4.83706 -3.22691,1.16682 -6.78178,1.7486 -10.66627,1.7486 h -8.39358 c -3.80868,0 -7.30586,-0.6032 -10.48992,-1.80629 -3.18736,-1.20308 -5.94622,-2.83631 -8.27657,-4.89475 -2.33202,-2.05842 -4.15807,-4.46954 -5.47981,-7.2284 -1.32175,-2.7572 -1.98097,-5.73032 -1.98097,-8.91766 v -14.33651 c 0,-3.49718 0.67899,-6.64498 2.0403,-9.4434 1.358,-2.79676 3.24339,-5.18645 5.65285,-7.16743 2.40782,-1.98262 5.20624,-3.51531 8.39359,-4.60468 3.1857,-1.08772 6.56589,-1.63158 10.14053,-1.63158 z"
       style="fill:#ffffff;fill-opacity:1;fill-rule:nonzero;stroke:none;stroke-width:1.64806" />
    <path
       id="path52"
       d="m 399.65264,727.79084 h -14.57052 v -80.43042 h 14.57052 z"
       style="fill:#ffffff;fill-opacity:1;fill-rule:nonzero;stroke:none;stroke-width:1.64806" />
    <path
       id="path53"
       d="m 414.38535,653.43977 h 14.68754 v 16.31912 h 16.66851 v 11.42437 h -16.66851 v 23.66289 c 0,7.15095 2.79676,10.76349 8.39193,10.83931 1.86561,0 3.39996,-0.27028 4.60469,-0.81579 1.20474,-0.54221 1.80628,-0.77459 1.80628,-0.69878 l 3.73121,11.89077 c -1.0119,0.46475 -2.13918,0.93116 -3.38017,1.39756 -1.08938,0.39059 -2.35179,0.71855 -3.7889,0.99048 -1.43876,0.27193 -3.05057,0.40873 -4.83706,0.40873 -3.34228,0 -6.31538,-0.56528 -8.91768,-1.69092 -2.60393,-1.12397 -4.81893,-2.67975 -6.64499,-4.66237 -1.82605,-1.98097 -3.20548,-4.33111 -4.13828,-7.05205 -0.93115,-2.71931 -1.39755,-5.7122 -1.39755,-8.97536 z"
       style="fill:#ffffff;fill-opacity:1;fill-rule:nonzero;stroke:none;stroke-width:1.64806" />
    <path
       id="path54"
       d="m 263.14904,744.12806 -0.36751,2.72425 c -0.54058,-0.11372 -1.02345,-0.2093 -1.44865,-0.28346 -0.42356,-0.0726 -0.91467,-0.14174 -1.47008,-0.20766 -0.55704,-0.0659 -1.13056,-0.0973 -1.71892,-0.0973 -1.38932,0 -2.3831,0.17469 -2.98135,0.52573 -0.5966,0.35269 -0.8949,0.82239 -0.8949,1.41239 0,0.47465 0.22908,0.86194 0.68725,1.16519 0.45815,0.30159 1.03333,0.58011 1.72881,0.83391 0.69548,0.25381 1.4437,0.51585 2.24466,0.78448 0.80261,0.27029 1.55083,0.60484 2.24632,1.00532 0.69547,0.40213 1.27065,0.89984 1.73046,1.49809 0.45651,0.5966 0.68724,1.34482 0.68724,2.24466 0,1.4882 -0.61143,2.66163 -1.82935,3.52192 -1.21792,0.85699 -2.99617,1.28713 -5.33643,1.28713 -0.73503,0 -1.42227,-0.0362 -2.06007,-0.11038 -0.63946,-0.0726 -1.19485,-0.15987 -1.66949,-0.25875 -0.5554,-0.0973 -1.07125,-0.2126 -1.54423,-0.3428 l 0.39223,-2.74732 c 0.49112,0.11532 1.01356,0.2126 1.56895,0.29336 0.45817,0.0824 0.97895,0.15327 1.55742,0.2093 0.58177,0.0577 1.16683,0.0857 1.75519,0.0857 1.2756,0 2.20841,-0.15986 2.79677,-0.47793 0.59,-0.31973 0.88336,-0.78943 0.88336,-1.41075 0,-0.47464 -0.22743,-0.86193 -0.68724,-1.16683 -0.45652,-0.30159 -1.03005,-0.57847 -1.71729,-0.83391 -0.68724,-0.25215 -1.43052,-0.5142 -2.23147,-0.78448 -0.80261,-0.26863 -1.55084,-0.59989 -2.24467,-0.99378 -0.69548,-0.39224 -1.2723,-0.88337 -1.73046,-1.47173 -0.45817,-0.59 -0.68724,-1.33327 -0.68724,-2.23312 0,-1.4882 0.61802,-2.6748 1.85242,-3.55652 1.23605,-0.88336 3.07034,-1.32669 5.50947,-1.32669 0.71855,0 1.37943,0.038 1.98757,0.11211 0.60319,0.0742 1.12727,0.15161 1.56895,0.23238 0.52244,0.11532 0.99708,0.23732 1.42228,0.36751"
       style="fill:#ffffff;fill-opacity:1;fill-rule:nonzero;stroke:none;stroke-width:1.64806" />
    <path
       id="path55"
       d="m 281.9602,755.51322 v -7.11469 c 0,-0.70372 -0.23402,-1.24264 -0.69878,-1.62005 -0.46641,-0.37576 -1.0663,-0.56528 -1.80463,-0.56528 h -3.50708 c -0.73669,0 -1.33822,0.18952 -1.80298,0.56528 -0.46641,0.37741 -0.70043,0.91633 -0.70043,1.62005 v 7.11469 c 0,0.70372 0.23074,1.25088 0.68725,1.64311 0.45816,0.39225 1.05641,0.58836 1.79144,0.58836 h 3.5318 c 0.73833,0 1.33822,-0.19611 1.80463,-0.58836 0.46476,-0.39223 0.69878,-0.93939 0.69878,-1.64311 m -2.20841,-12.04735 c 0.78612,0 1.50963,0.11533 2.17215,0.34281 0.66252,0.23072 1.23605,0.56033 1.71728,0.99542 0.48123,0.43345 0.86193,0.94764 1.14046,1.54423 0.27852,0.59825 0.41696,1.26407 0.41696,1.99911 v 7.21357 c 0,0.73833 -0.13844,1.41239 -0.41696,2.02547 -0.27853,0.61307 -0.65923,1.13221 -1.14046,1.55741 -0.48123,0.42521 -1.05476,0.75647 -1.71728,0.99379 -0.66252,0.23732 -1.38603,0.35433 -2.17215,0.35433 h -4.1218 c -0.76965,0 -1.48326,-0.11705 -2.14743,-0.35433 -0.66087,-0.23732 -1.23439,-0.56858 -1.71728,-0.99379 -0.48289,-0.4252 -0.86193,-0.94434 -1.14046,-1.55741 -0.27852,-0.61308 -0.41696,-1.28714 -0.41696,-2.02547 v -7.21357 c 0,-0.73504 0.13844,-1.40415 0.41696,-2.01064 0.27853,-0.60483 0.65757,-1.12069 1.14046,-1.54589 0.48289,-0.4252 1.05641,-0.75151 1.71728,-0.98223 0.66417,-0.22744 1.37778,-0.34281 2.14743,-0.34281 z"
       style="fill:#ffffff;fill-opacity:1;fill-rule:nonzero;stroke:none;stroke-width:1.64806" />
    <path
       id="path56"
       d="m 304.96699,757.74552 v 2.69952 H 292.52741 V 743.5145 h 3.24009 v 14.23102 z"
       style="fill:#ffffff;fill-opacity:1;fill-rule:nonzero;stroke:none;stroke-width:1.64806" />
    <path
       id="path57"
       d="m 324.71161,743.51498 v 12.04734 c 0,0.73669 -0.14833,1.4025 -0.44333,1.9991 -0.29336,0.59825 -0.68559,1.1075 -1.17506,1.53434 -0.49114,0.4252 -1.06795,0.75646 -1.73047,0.99379 -0.66418,0.23567 -1.36131,0.35433 -2.09964,0.35433 h -3.55651 c -0.73504,0 -1.43547,-0.12199 -2.09634,-0.36751 -0.66418,-0.24557 -1.24429,-0.58013 -1.74365,-1.00697 -0.49937,-0.42356 -0.8949,-0.9394 -1.18991,-1.54423 -0.29335,-0.60485 -0.44003,-1.26077 -0.44003,-1.96285 v -12.04734 h 3.26152 v 11.77706 c 0,0.3774 0.0775,0.71526 0.23402,1.0185 0.15493,0.3016 0.35928,0.56034 0.61308,0.77294 0.25215,0.2126 0.5554,0.37576 0.90809,0.48947 0.35103,0.11706 0.72349,0.17305 1.11574,0.17305 h 2.23312 c 0.39224,0 0.75976,-0.056 1.10421,-0.17305 0.34279,-0.11371 0.64274,-0.27357 0.89489,-0.47793 0.2538,-0.20436 0.45816,-0.46146 0.61308,-0.77295 0.15656,-0.30982 0.23402,-0.66252 0.23402,-1.05475 v -11.75234 z"
       style="fill:#ffffff;fill-opacity:1;fill-rule:nonzero;stroke:none;stroke-width:1.64806" />
    <path
       id="path58"
       d="m 330.32211,746.21401 v -2.69952 h 14.96606 v 2.69952 h -5.8638 v 14.23102 h -3.23845 v -14.23102 z"
       style="fill:#ffffff;fill-opacity:1;fill-rule:nonzero;stroke:none;stroke-width:1.64806" />
    <path
       id="path59"
       d="m 354.53032,760.44391 h -3.26316 V 743.515 h 3.26316 z"
       style="fill:#ffffff;fill-opacity:1;fill-rule:nonzero;stroke:none;stroke-width:1.64806" />
    <path
       id="path60"
       d="m 373.61112,755.51322 v -7.11469 c 0,-0.70372 -0.23402,-1.24264 -0.69877,-1.62005 -0.46641,-0.37576 -1.06631,-0.56528 -1.80463,-0.56528 h -3.50709 c -0.73668,0 -1.33822,0.18952 -1.80297,0.56528 -0.46641,0.37741 -0.70043,0.91633 -0.70043,1.62005 v 7.11469 c 0,0.70372 0.23073,1.25088 0.68724,1.64311 0.45816,0.39225 1.05641,0.58836 1.79144,0.58836 h 3.53181 c 0.73832,0 1.33822,-0.19611 1.80463,-0.58836 0.46475,-0.39223 0.69877,-0.93939 0.69877,-1.64311 m -2.20841,-12.04735 c 0.78613,0 1.50964,0.11533 2.17216,0.34281 0.66252,0.23072 1.23604,0.56033 1.71727,0.99542 0.48123,0.43345 0.86194,0.94764 1.14047,1.54423 0.27852,0.59825 0.41695,1.26407 0.41695,1.99911 v 7.21357 c 0,0.73833 -0.13843,1.41239 -0.41695,2.02547 -0.27853,0.61307 -0.65924,1.13221 -1.14047,1.55741 -0.48123,0.42521 -1.05475,0.75647 -1.71727,0.99379 -0.66252,0.23732 -1.38603,0.35433 -2.17216,0.35433 h -4.1218 c -0.76965,0 -1.48325,-0.11705 -2.14743,-0.35433 -0.66086,-0.23732 -1.23439,-0.56858 -1.71728,-0.99379 -0.48288,-0.4252 -0.86193,-0.94434 -1.14046,-1.55741 -0.27852,-0.61308 -0.41696,-1.28714 -0.41696,-2.02547 v -7.21357 c 0,-0.73504 0.13844,-1.40415 0.41696,-2.01064 0.27853,-0.60483 0.65758,-1.12069 1.14046,-1.54589 0.48289,-0.4252 1.05642,-0.75151 1.71728,-0.98223 0.66418,-0.22744 1.37778,-0.34281 2.14743,-0.34281 z"
       style="fill:#ffffff;fill-opacity:1;fill-rule:nonzero;stroke:none;stroke-width:1.64806" />
    <path
       id="path61"
       d="m 399.53746,743.51498 v 16.9289 h -3.5829 l -8.66056,-12.5121 0.12361,1.86562 0.0231,10.64648 h -3.26316 v -16.9289 h 3.55817 l 8.68364,12.2929 -0.122,-1.89033 v -10.40257 z"
       style="fill:#ffffff;fill-opacity:1;fill-rule:nonzero;stroke:none;stroke-width:1.64806" />
  </g>
</svg>
