<?xml version="1.0" encoding="UTF-8" standalone="no"?>
<!-- Generator: Adobe Illustrator 18.0.0, SVG Export Plug-In . SVG Version: 6.00 Build 0)  -->

<svg viewBox="0 0 192 70"
   fill="none"
   class="Header_header__brand__aniyA"
   aria-label="Marca da Amarante"
   version="1.1"
   id="svg7"
   xmlns="http://www.w3.org/2000/svg"
   xmlns:svg="http://www.w3.org/2000/svg">
  <g
     clip-path="url(#brand_svg__clip0)"
     id="g6"
     
     transform="translate(-0.674945,-0.93645113)">
    <path
       d="m 120.269,15.296 a 2.348,2.348 0 0 1 -0.044,2.902 l -0.651,0.795 a 0.74,0.74 0 0 0 -0.155,0.98 26.56,26.56 0 0 1 2.188,4.006 2.512,2.512 0 0 1 -1.434,3.365 c -1.264,0.472 -2.676,-0.184 -3.216,-1.414 -3.482,-7.872 -11.297,-12.946 -19.94,-12.924 a 21.668,21.668 0 0 0 -12.538,3.991 21.622,21.622 0 0 0 -7.822,10.178 2.51,2.51 0 0 1 -2.321,1.642 2.595,2.595 0 0 1 -0.961,-0.17 c -1.301,-0.5 -1.907,-1.988 -1.427,-3.291 0.281,-0.766 0.606,-1.51 0.954,-2.232 a 0.73,0.73 0 0 0 -0.281,-0.942 l -1.885,-2.106 a 1.727,1.727 0 0 1 -0.2,-2.033 1.752,1.752 0 0 1 1.907,-0.802 l 2.898,0.7 c 0.437,0.065 0.732,0.124 0.962,-0.155 a 26.534,26.534 0 0 1 4.221,-4.117 0.737,0.737 0 0 0 0.148,-1.009 l -1.33,-2.666 a 2.068,2.068 0 0 1 0.665,-2.622 2.086,2.086 0 0 1 2.72,0.28 l 2.322,2.475 a 0.743,0.743 0 0 0 0.909,0.25 26.608,26.608 0 0 1 5.796,-1.863 0.737,0.737 0 0 0 0.591,-0.78 L 92.242,2.998 a 2.071,2.071 0 0 1 1.84,-2.04 l 0.053,-0.007 a 2.148,2.148 0 0 1 2.358,1.723 c 0.325,1.73 0.887,4.662 0.887,4.662 0.03,0.375 0.333,0.67 0.71,0.684 2.521,0.096 4.975,0.545 7.304,1.304 a 0.738,0.738 0 0 0 0.85,-0.31 l 2.499,-3.24 a 2.145,2.145 0 0 1 2.795,-0.412 c 0.939,0.596 1.257,1.974 0.739,2.96 l -1.316,2.674 a 0.737,0.737 0 0 0 0.229,1.023 26.454,26.454 0 0 1 4.118,3.137 c 0.274,0.25 0.688,0.265 0.976,0.03 l 0.983,-0.523 a 2.35,2.35 0 0 1 3.002,0.633 z"
       fill="#F7AB29"
       id="path1"
        />
    <path
       d="m 184.211,52.972 c 1.124,-2.644 -0.429,-4.566 -3.275,-2.453 -2.669,1.982 -4.99,2.107 -4.99,2.107 -1.634,0.309 -3.674,0.044 -5.471,-0.92 -1.456,-0.781 -2.647,-2.291 -3.342,-4.25 v -0.007 a 0.257,0.257 0 0 1 0.244,-0.34 c 1.124,-0.007 2.218,-0.102 3.29,-0.19 0.429,-0.037 0.858,-0.074 1.294,-0.104 5.345,-0.375 8.923,-2.18 10.646,-5.353 1.065,-1.96 1.102,-4.154 0.111,-6.186 -1.131,-2.305 -3.423,-4.007 -5.996,-4.441 -4.214,-0.714 -10.269,0.766 -15.2,11.849 -0.059,0.125 -0.096,0.25 -0.133,0.383 l -0.067,0.155 c -1.271,3.372 -2.58,6.856 -4.997,9.286 -1.08,1.09 -2.691,1.944 -3.682,1.487 a 1.611,1.611 0 0 1 -0.525,-0.42 c -0.37,-0.426 -0.562,-1.03 -0.525,-1.664 l 1.154,-21.71 a 0.651,0.651 0 0 1 0.687,-0.61 c 1.553,0.095 3.209,0.19 5.183,0.272 h 0.014 a 2.53,2.53 0 0 0 2.618,-2.54 c -0.015,-1.349 -1.139,-2.438 -2.492,-2.49 a 191.4,191.4 0 0 1 -4.029,-0.206 0.469,0.469 0 0 1 -0.392,-0.663 c 0.34,-0.751 0.621,-1.569 0.821,-2.445 a 2.51,2.51 0 0 0 -1.893,-3.012 2.52,2.52 0 0 0 -3.024,1.885 c -0.406,1.746 -1.22,3.005 -2.181,3.373 -0.842,0.324 -2.203,0.302 -3.519,0.28 -0.953,-0.015 -1.937,-0.03 -2.898,0.066 -1.316,0.14 -2.358,1.245 -2.329,2.57 a 2.52,2.52 0 0 0 2.529,2.453 c 1.885,0 3.475,0.03 4.924,0.08 a 0.953,0.953 0 0 1 0.916,1.002 l -1.138,21.416 c -0.104,1.944 0.517,3.792 1.745,5.206 a 6.593,6.593 0 0 0 2.21,1.694 6.53,6.53 0 0 0 2.484,0.589 c 2.329,0.081 4.857,-1.002 6.927,-3.093 1.427,-1.436 2.529,-3.063 3.431,-4.757 1.16,2.113 2.794,3.792 4.739,4.83 a 12.332,12.332 0 0 0 5.434,1.444 c 1.589,0.059 3.245,-0.17 4.923,-0.67 a 17.01,17.01 0 0 0 2.085,-0.766 c 1.893,-0.78 3.172,-1.922 3.689,-3.137 z M 167.991,42.08 a 0.306,0.306 0 0 1 -0.274,-0.464 c 0.836,-1.436 1.701,-2.621 2.603,-3.557 2.025,-2.091 3.77,-2.371 4.805,-2.334 0.326,0.014 0.577,0.051 0.747,0.08 0.946,0.163 1.893,0.855 2.299,1.687 0.274,0.553 0.266,1.075 -0.007,1.59 -0.85,1.562 -3.054,2.475 -6.565,2.726 -0.459,0.03 -0.91,0.073 -1.368,0.11 -0.784,0.066 -1.523,0.133 -2.24,0.162 z"
       fill="#fff"
       id="path2"
        />
    <path
       d="m 140.164,31.674 c -1.812,0.148 -1.538,2.998 -1.538,2.998 l -0.185,10.037 c -0.015,0.324 -0.429,0.464 -0.636,0.214 l -9.204,-11.29 c -0.599,-0.75 -1.56,-1.149 -2.499,-0.972 a 2.525,2.525 0 0 0 -2.048,2.342 L 123.958,53.2 c 0,0.066 -0.007,0.133 0,0.199 a 1.182,1.182 0 0 1 -1.989,0.891 1.174,1.174 0 0 1 -0.369,-0.817 l -0.215,-7.667 c 0.008,-0.876 -0.051,-7.725 -4.509,-11.59 -1.479,-1.282 -3.224,-2.078 -5.22,-2.402 a 7.683,7.683 0 0 0 -3.039,0.11 c -0.761,0.192 -1.574,0.524 -1.981,1.113 -0.88,1.281 -0.717,3.711 2.699,3.653 1.752,-0.03 3.142,0.382 4.206,1.303 0.311,0.265 0.592,0.574 0.836,0.906 0.288,0.39 -0.03,0.935 -0.51,0.854 a 8.514,8.514 0 0 0 -2.085,-0.088 c -4.17,0.324 -7.556,3.63 -7.948,7.776 -0.473,4.978 3.364,9.272 8.31,9.449 a 8.552,8.552 0 0 0 3.881,-0.766 1.068,1.068 0 0 1 1.361,0.442 6.22,6.22 0 0 0 5.552,3.078 c 3.393,-0.096 6.092,-2.894 6.055,-6.26 l 0.502,-9.956 c 0.015,-0.28 0.37,-0.39 0.548,-0.17 l 9.071,11.422 a 2.531,2.531 0 0 0 3.046,0.722 c 0.879,-0.405 1.427,-1.296 1.464,-2.26 l -0.045,-16.21 c 0.118,-4.75 -1.604,-5.405 -3.415,-5.258 z m -27.82,20.186 c -1.989,-0.074 -3.934,-1.753 -3.86,-3.734 0.074,-1.98 2.152,-4.087 4.141,-4.02 1.988,0.073 3.777,2.319 3.703,4.3 -0.074,1.974 -1.996,3.52 -3.984,3.454 z"
       fill="#fff"
       id="path3"
        />
    <path
       d="m 109.837,59.46 a 9.335,9.335 0 0 1 -2.299,-0.663 c -1.353,-0.596 -2.003,-1.303 -2.003,-1.303 -0.533,-0.465 -1.22,-1.171 -2.085,-2.261 A 28.235,28.235 0 0 1 100.433,50.49 L 98.94,47.544 c 3.157,-2.054 4.761,-5.847 3.807,-9.08 -0.835,-2.842 -3.437,-5.022 -6.808,-5.7 -2.292,-0.456 -3.978,-0.581 -8.066,-0.604 h -0.074 c -1.39,0 -1.605,1.12 -1.612,2.504 0,0.096 0.007,0.192 0.015,0.288 0.03,0.22 0.044,0.441 0.044,0.662 v 17.851 c 0,0.103 0.008,0.206 0.022,0.31 0.067,0.56 -0.074,1.119 -0.37,1.524 -0.28,0.383 -0.68,0.714 -1.722,0.582 -0.163,-0.022 -0.266,-0.06 -0.407,-0.243 -0.842,-1.09 -0.88,-4.117 -0.643,-5.81 l 0.022,-0.229 0.4,-7.887 c 0.052,-0.64 0.192,-4.22 -2.27,-6.753 -1.109,-1.142 -3.164,-2.46 -6.668,-2.26 a 13.221,13.221 0 0 0 -3.12,0.544 c -1.28,0.398 -2.455,1.112 -3.357,2.099 -0.746,0.817 -1.412,1.9 -1.094,2.946 0.636,2.091 2.632,1.958 3.77,0.979 1.065,-0.913 2.425,-1.45 4.082,-1.547 1.271,-0.073 2.188,0.17 2.735,0.722 l 0.007,0.008 a 1.084,1.084 0 0 1 -0.096,1.642 c -0.62,0.486 -1.449,0.965 -2.477,1.414 -0.643,0.28 -1.308,0.537 -2.018,0.817 -1.3,0.5 -2.647,1.024 -3.94,1.745 -1.664,0.921 -2.958,2.055 -3.83,3.33 a 0.714,0.714 0 0 1 -1.16,0.021 45.867,45.867 0 0 1 -1.161,-1.605 C 60.104,41.69 58.885,35.636 58.862,35.592 a 2.51,2.51 0 0 0 -2.084,-1.465 2.533,2.533 0 0 0 -2.3,1.097 l -6.83,10.855 a 0.416,0.416 0 0 1 -0.674,0.022 l -7.592,-9.699 a 2.514,2.514 0 0 0 -2.085,-0.942 2.518,2.518 0 0 0 -2.602,2.069 l -2.3,16.385 c -0.014,0.074 -0.022,0.148 -0.03,0.221 -0.058,0.678 -0.606,1.238 -1.286,1.252 a 1.312,1.312 0 0 1 -1.316,-1.09 c -0.628,-3.792 -0.902,-6.996 -1.168,-10.089 -0.31,-3.637 -0.628,-7.4 -1.523,-12.018 -0.37,-1.9 -0.872,-5.28 -4.265,-5.73 -1.915,-0.257 -3.18,2.085 -4.14,4.456 -0.296,0.722 -0.696,1.458 -1.036,2.43 -0.347,0.98 -0.687,1.966 -1.035,2.953 -0.658,1.87 -1.308,3.749 -1.988,5.634 -0.178,0.508 -0.703,0.81 -1.235,0.721 -2.44,-0.397 -4.643,-0.655 -6.972,-0.456 0,0 -2.424,0.324 -2.277,2.334 0.067,0.943 0.976,1.87 1.93,2.298 1.013,0.457 2.122,0.383 3.238,0.383 1.057,-0.007 1.582,0.044 2.684,0.273 0.28,0.058 0.443,0.33 0.347,0.603 -1.471,4.227 -2.839,7.512 -4.28,10.384 0,0 -0.022,0.052 -0.074,0.14 -0.392,0.758 -2.388,4.47 -5.109,6.73 -2.336,1.946 -2.447,3.477 -1.937,4.244 0.155,0.235 0.362,0.397 0.592,0.47 0.96,0.347 4.095,0.804 8.686,-5.117 3.734,-6.105 4.207,-8.219 7.068,-15.642 3.127,1.576 5.848,3.955 7.704,6.908 0.059,0.096 0.133,0.191 0.2,0.28 1.596,2.636 3.23,5.059 5.855,4.75 4.007,-0.472 6.055,-3.314 6.365,-6.54 L 39.108,45.1 a 0.292,0.292 0 0 1 0.518,-0.132 l 5.914,7.408 c 0.503,0.626 1.272,0.98 2.078,0.95 a 2.526,2.526 0 0 0 1.996,-1.104 l 5.56,-8.204 a 0.444,0.444 0 0 1 0.753,0.03 62.665,62.665 0 0 0 2.854,4.573 c 3.098,4.507 6.166,7.467 9.16,8.866 0.14,0.074 0.281,0.14 0.421,0.206 1.146,0.516 2.455,0.78 3.815,0.78 1.213,0 2.47,-0.205 3.704,-0.618 a 15.78,15.78 0 0 0 2.787,-1.281 c 0.289,0.817 0.658,1.532 1.124,2.136 0.954,1.237 2.27,2.297 3.8,2.481 0.348,0.044 0.695,0.067 1.028,0.067 2.218,0 4.11,-1.23 5.39,-2.975 1.034,-1.414 1.197,-2.688 1.315,-4.971 V 49.29 c 0,-0.361 0.31,-0.641 0.666,-0.611 0.125,0.007 0.244,0.022 0.37,0.029 0.243,0.022 0.487,0.037 0.731,0.059 0.525,0.037 0.998,0.353 1.235,0.825 l 1.626,3.196 a 33.096,33.096 0 0 0 3.253,5.184 l 0.022,0.022 c 3.017,3.49 5.538,4.839 7.453,5.089 3.718,0.456 5.093,-3.314 3.156,-3.623 z M 23.177,47.05 A 24.65,24.65 0 0 0 19.302,44.7 0.354,0.354 0 0 1 19.125,44.259 c 0.761,-2.114 1.5,-4.22 2.233,-6.326 0.325,-0.935 0.65,-1.863 0.975,-2.791 0.052,0.007 0.067,0.007 0.074,0.007 0,0 0.023,0 0.074,0.008 0.577,3.439 0.82,6.377 1.087,9.463 0.06,0.7 0.118,1.399 0.185,2.113 0.022,0.31 -0.325,0.501 -0.577,0.317 z m 54.937,2.187 c -0.03,0.221 -0.082,0.7 -0.118,1.34 a 0.801,0.801 0 0 1 -0.326,0.597 c -1.057,0.766 -2.195,1.48 -3.423,1.893 a 6.743,6.743 0 0 1 -1.885,0.353 2.752,2.752 0 0 0 -0.495,-0.051 c -0.51,0 -1.058,-0.133 -1.642,-0.383 -0.857,-0.48 -1.249,-1.348 -1.138,-1.96 0.155,-0.839 1.087,-1.804 2.484,-2.577 0.99,-0.552 2.122,-0.987 3.32,-1.45 A 58.75,58.75 0 0 0 77.116,46.1 c 0.007,0 0.007,-0.007 0.015,-0.007 0.54,-0.236 1.138,0.169 1.109,0.75 z M 96.1,43.391 c -0.769,0.479 -1.619,0.427 -3.327,0.28 l -0.828,-0.066 a 0.698,0.698 0 0 1 -0.643,-0.693 v -4.956 c 0,-0.398 0.34,-0.714 0.74,-0.692 1.116,0.074 1.751,0.199 2.905,0.427 1.449,0.295 2.669,1.186 2.957,2.18 0.325,1.12 -0.48,2.703 -1.804,3.52 z"
       fill="#fff"
       id="path4"
        />
    <path
       d="m 190.769,33.611 a 1.368,1.368 0 0 1 -0.03,-0.243 l -0.015,-0.405 c -0.007,-0.191 -0.044,-0.324 -0.11,-0.412 a 0.697,0.697 0 0 0 -0.193,-0.162 0.761,0.761 0 0 0 0.244,-0.243 0.837,0.837 0 0 0 0.119,-0.472 c 0,-0.368 -0.148,-0.625 -0.451,-0.758 a 1.486,1.486 0 0 0 -0.584,-0.103 h -1.427 v 3.122 h 0.517 V 32.64 h 0.85 c 0.156,0 0.267,0.015 0.333,0.052 0.118,0.059 0.178,0.17 0.185,0.353 l 0.022,0.501 c 0.008,0.125 0.015,0.199 0.022,0.243 a 0.5,0.5 0 0 0 0.037,0.118 l 0.015,0.03 h 0.592 v -0.155 l -0.03,-0.015 c -0.037,-0.022 -0.074,-0.074 -0.096,-0.155 z m -0.503,-1.9 c 0,0.184 -0.044,0.31 -0.14,0.369 -0.096,0.073 -0.237,0.103 -0.414,0.103 h -0.865 v -0.928 h 0.916 c 0.126,0 0.23,0.022 0.304,0.059 0.133,0.08 0.199,0.206 0.199,0.397 z"
       fill="#19411D"
       id="path5"
        />
    <path
       d="m 189.512,29.325 a 3.06,3.06 0 0 0 -3.061,3.05 3.06,3.06 0 0 0 3.061,3.048 3.06,3.06 0 0 0 3.061,-3.049 3.061,3.061 0 0 0 -3.061,-3.049 z m 0,5.56 a 2.52,2.52 0 0 1 -2.521,-2.51 2.52,2.52 0 0 1 2.521,-2.512 2.52,2.52 0 0 1 2.521,2.511 2.52,2.52 0 0 1 -2.521,2.511 z"
       fill="#19411D"
       id="path6"
        />
  </g>
  <defs
     id="defs7">
    <clipPath
       id="brand_svg__clip0">
      <path
         fill="#ffffff"
         transform="translate(0.664,0.921)"
         d="M 0,0 H 191.901 V 69.297 H 0 Z"
         id="path7" />
    </clipPath>
  </defs>
</svg>
