<?xml version="1.0" encoding="UTF-8" standalone="no"?>
<svg viewBox="0 0 125 90"
   fill="none"
   version="1.1"
   id="svg1"
   sodipodi:docname="gav.svg"
   inkscape:version="1.4.3 (0d15f75042, 2025-12-25)"
   width="300"
   height="150"
   xmlns:inkscape="http://www.inkscape.org/namespaces/inkscape"
   xmlns:sodipodi="http://sodipodi.sourceforge.net/DTD/sodipodi-0.dtd"
   xmlns="http://www.w3.org/2000/svg"
   xmlns:svg="http://www.w3.org/2000/svg">
  <defs
     id="defs1" />
  <sodipodi:namedview
     id="namedview1"
     pagecolor="#ffffff"
     bordercolor="#000000"
     borderopacity="0.25"
     inkscape:showpageshadow="2"
     inkscape:pageopacity="0.0"
     inkscape:pagecheckerboard="0"
     inkscape:deskcolor="#d1d1d1"
     inkscape:zoom="9.5714286"
     inkscape:cx="60.022388"
     inkscape:cy="42"
     inkscape:window-width="1920"
     inkscape:window-height="1012"
     inkscape:window-x="0"
     inkscape:window-y="0"
     inkscape:window-maximized="1"
     inkscape:current-layer="svg1">
    <inkscape:page
       x="0"
       y="0"
       width="300"
       height="150"
       id="page2"
       margin="0"
       bleed="0" />
  </sodipodi:namedview>
  <path
     d="m 89.4887,79.8086 c 0.2457,1.9685 1.4773,3.5271 4.0185,3.5271 2.5413,0 3.9372,-1.5586 3.9372,-3.4442 0,-1.7229 -0.9013,-2.7072 -2.0499,-3.4458 l -2.2143,-1.3942 c -0.82,-0.4914 -0.9843,-0.82 -0.9843,-1.313 0,-0.6556 0.5743,-1.1486 1.313,-1.1486 0.8199,0 1.4772,0.41 1.8872,1.5586 l 1.9686,-0.7386 c -0.41,-1.5586 -1.4773,-2.8699 -3.6915,-2.8699 -2.2143,0 -3.7728,1.3129 -3.7728,3.1985 0,1.64 0.8199,2.5429 2.1328,3.3629 l 2.0516,1.2299 c 0.82,0.4913 1.0656,1.0656 1.0656,1.5586 0,0.7386 -0.4913,1.3943 -1.4772,1.3943 -1.3943,0 -2.0499,-1.23 -2.1329,-2.2143 l -2.0499,0.7387 z m -11.73,-6.9714 h 3.0358 v 10.2529 h 2.2972 V 72.8372 h 3.1172 v -2.0515 h -8.4486 v 2.0515 z m -10.0072,3.6085 v -3.6085 h 2.1329 c 1.2299,0 1.9685,0.82 1.9685,1.8043 0,0.9842 -0.7386,1.8042 -1.9685,1.8042 z m -2.2972,6.6444 h 2.2972 v -4.7572 h 1.2299 l 2.7885,4.7572 h 2.6243 l -3.0358,-4.9215 c 1.7229,-0.4913 2.8715,-1.8856 2.8715,-3.6085 0,-2.1329 -1.723,-3.7728 -4.1015,-3.7728 H 65.4526 V 83.0901 Z M 51.0186,76.9387 c 0,-2.5429 1.4772,-4.2658 3.8558,-4.2658 2.3785,0 3.8542,1.7229 3.8542,4.2658 0,2.5429 -1.5586,4.1828 -3.8542,4.1828 -2.2956,0 -3.8558,-1.6399 -3.8558,-4.1828 z m -2.3786,0 c 0,3.9371 2.5429,6.397 6.2344,6.397 3.6915,0 6.2343,-2.5429 6.2343,-6.397 0,-3.8542 -2.6242,-6.3971 -6.2343,-6.3971 -3.6102,0 -6.2344,2.5429 -6.2344,6.3971 z M 46.2615,24.7715 h 12.7144 l 5.8227,-10.9101 8.8586,20.587 H 60.5328 C 60.0415,38.3856 58.8099,42.16 57.17,45.1112 h 21.08 l 5.4127,12.6314 H 96.7871 L 120,1.064 H 107.04 L 90.3901,43.3883 72.2629,1.064 H 59.1385 L 46.2598,24.7699 Z m -9.5143,55.0371 c 0.2457,1.9685 1.4773,3.5271 4.0185,3.5271 2.5413,0 3.9372,-1.5586 3.9372,-3.4442 0,-1.7229 -0.9013,-2.7072 -2.0499,-3.4458 l -2.2143,-1.3942 c -0.8199,-0.4914 -0.9843,-0.82 -0.9843,-1.313 0,-0.6556 0.5743,-1.1486 1.3113,-1.1486 0.82,0 1.4773,0.41 1.8873,1.5586 l 1.9685,-0.7386 c -0.41,-1.5586 -1.4772,-2.8699 -3.6914,-2.8699 -2.2143,0 -3.7729,1.3129 -3.7729,3.1985 0,1.64 0.82,2.5429 2.1329,3.3629 l 2.0499,1.2299 c 0.82,0.4913 1.0673,1.0656 1.0673,1.5586 0,0.7386 -0.493,1.3943 -1.4772,1.3943 -1.3943,0 -2.0516,-1.23 -2.1329,-2.2143 l -2.0516,0.7387 z m -11.3184,3.2815 h 7.2186 v -2.05 H 27.726 v -3.1985 h 4.5114 V 75.873 H 27.726 v -3.0342 h 4.8401 V 70.7873 H 25.4304 V 83.0901 Z M 14.5203,76.4457 v -3.6085 h 2.1329 c 1.2299,0 1.9685,0.82 1.9685,1.8043 0,0.9842 -0.7386,1.8042 -1.9685,1.8042 z m -2.2972,6.6444 h 2.2972 v -4.7572 h 1.1486 l 2.8699,4.7572 h 2.6242 l -3.0342,-4.9215 c 1.7229,-0.4913 2.8699,-1.8856 2.8699,-3.6085 0,-2.1329 -1.8043,-3.7728 -4.1829,-3.7728 H 12.2231 Z M 29.6945,58.6472 c 18.5372,0 28.79,-14.19 28.79,-31.2515 H 34.0417 v 10.6628 h 10.3342 c -1.5586,5.2501 -7.793,8.6959 -14.683,8.6959 -10.1715,0 -17.3885,-7.1356 -17.3885,-17.7171 0,-10.0072 7.0543,-17.1429 17.3885,-17.1429 4.1015,0 8.2843,0.9843 11.4015,3.5272 l 5.66,-10.50017 C 41.9973,1.80588 35.5986,0 29.6929,0 12.3857,0 0,12.3028 0,29.0356 c 0,16.7329 12.7144,29.61 29.6929,29.61"
     fill="#002478"
     id="path1"
      />
</svg>
