<?xml version="1.0" encoding="UTF-8" standalone="no"?>
<!-- Generator: Adobe Illustrator 18.0.0, SVG Export Plug-In . SVG Version: 6.00 Build 0)  -->

<svg
   version="1.1"
   id="Layer_1"
   x="0px"
   y="0px"
   viewBox="0 0 371.1 195.8"
   enable-background="new 0 0 371.1 195.8"
   xml:space="preserve"
   
   
   xmlns="http://www.w3.org/2000/svg"
   xmlns:svg="http://www.w3.org/2000/svg"><defs
   id="defs8" />
<polygon
   points="115.9,170.3 118.9,170.3 118.9,181 130.6,181 130.6,170.3 133.7,170.3 133.7,195.2 130.6,195.2 130.6,183.4 118.9,183.4 118.9,195.2 115.9,195.2 "
   id="polygon1"
    />
<path
   d="m 158.2,182.8 c 0,-3.2 -0.4,-5.6 -1.1,-7.1 -1.1,-2.2 -3.1,-3.3 -6.1,-3.3 -2.9,0 -4.9,1 -6.1,3.1 -0.8,1.6 -1.2,4 -1.2,7.3 0,3.4 0.4,5.8 1.2,7.3 1.1,2.2 3.1,3.2 6.1,3.2 3,0 5,-1.1 6.1,-3.4 0.8,-1.5 1.1,-3.9 1.1,-7.1 m 3.1,0 c 0,3.7 -0.5,6.5 -1.5,8.4 -1.6,3 -4.5,4.6 -8.7,4.6 -4.2,0 -7.1,-1.5 -8.7,-4.5 -1,-1.9 -1.5,-4.8 -1.5,-8.5 0,-3.7 0.5,-6.5 1.5,-8.4 1.6,-3 4.5,-4.5 8.7,-4.5 4.2,0 7.1,1.5 8.7,4.5 0.9,1.9 1.5,4.7 1.5,8.4"
   id="path1"
    />
<polygon
   points="166.4,170.3 183.7,170.3 183.7,172.8 176.6,172.5 176.6,195.2 173.6,195.2 173.6,172.5 166.4,172.8 "
   id="polygon2"
    />
<polygon
   points="194.4,181.3 203.3,181 203.3,183.6 194.4,183.2 194.4,193.2 206.1,192.8 206.1,195.2 191.3,195.2 191.3,170.3 205.8,170.3 205.8,172.8 194.4,172.4 "
   id="polygon3"
    />
<polygon
   points="229.2,195.2 214.5,195.2 214.5,170.3 217.5,170.3 217.5,193.2 229.2,192.8 "
   id="polygon4"
    />
<path
   d="m 250.6,188.5 c 0,2.5 -0.9,4.4 -2.6,5.6 -1.4,1 -3.4,1.5 -5.9,1.5 -2.3,0 -4.5,-0.4 -6.7,-1.2 l -1.6,-0.6 0.9,-2.4 2.1,0.8 c 1.6,0.6 3.2,0.9 5,0.9 1.7,0 3.1,-0.3 4.1,-1 1.2,-0.8 1.8,-1.9 1.8,-3.5 0,-2.1 -1.1,-3.5 -3.3,-4.3 -2,-0.6 -4,-1.2 -6.1,-1.8 -2.2,-1 -3.3,-2.8 -3.3,-5.5 0,-4.5 2.6,-6.8 7.9,-6.8 1.7,0 3.7,0.2 5.9,0.7 l 1.3,0.3 -0.6,2.4 -1.6,-0.3 c -2.2,-0.4 -3.8,-0.6 -5,-0.6 -3.3,0 -4.9,1.5 -4.9,4.4 0,1.7 1.1,2.9 3.3,3.6 2,0.6 4,1.3 6.1,1.9 2.1,1 3.2,3.1 3.2,5.9"
   id="path4"
    />
<path
   d="M 231.3,135.3 H 229 l 3.5,-11.4 1.9,-5.6 1.8,5.6 3.8,11.4 z m 5.5,-21.9 h -4.9 l -13.4,36.8 5,0.1 4.3,-11.4 h 11.4 1.7 l 4.5,11.3 h 5 z"
   id="path5"
    />
<path
   d="m 311.2,147.2 c -1.4,0 -6.5,-0.7 -8.3,-3.8 -1.3,-2.3 -1.9,-6.2 -1.9,-11.6 0,-5.7 0.7,-9.6 2,-11.9 1.5,-2.4 3.9,-3.5 8.1,-3.5 2.8,0 6.3,1.5 8.2,3 l 2,-2.9 c -0.4,-0.3 -4.8,-3.9 -10.5,-3.9 -5.3,0 -9.1,1.5 -11.4,4.4 -2.3,3 -3.4,7.9 -3.4,14.7 0,6.5 1.1,11.2 3.2,14.3 2.8,4 6.9,4.9 11.7,4.9 5.4,0 9.5,-3.1 10.5,-3.9 l -2.1,-2.8 c -2,1.5 -4.3,3 -8.1,3 m -165.6,2.9 h 4.9 v -36.8 h -4.9 z m 32.3,-18.9 c -3.4,-1.9 -6.1,-1.8 -9.1,-2.8 -3.3,-1 -4.9,-2.8 -4.9,-5.3 0,-4.3 2.5,-6.5 7.3,-6.5 0.2,0 2.1,0 3.9,0.6 1.8,0.6 3.5,1.7 4,3.5 l 3.1,-1.2 c -1.1,-3.5 -3.9,-5.1 -6.2,-5.8 -2.4,-0.8 -4.4,-0.8 -5,-0.8 -6.5,0 -11.7,3.4 -11.7,10.1 0,3.9 1.5,6.2 4.9,8.1 3.4,1.9 6.1,1.8 9.1,2.7 3.3,1.2 4.9,3.3 4.9,6.3 0,2.3 -0.9,4.1 -2.7,5.2 -1,0.7 -2.4,1.2 -4.9,1.3 -4.8,0.1 -7.7,-3 -8.1,-4.3 L 159,144 c 1.4,4.3 7.1,6.6 11.6,6.6 2.8,0 6.1,-0.7 8.2,-2.2 2.6,-1.8 4,-4.5 4,-8.2 0,-4.2 -1.6,-7.1 -4.9,-9 m 30.5,0 c -3.4,-1.9 -6.1,-1.8 -9.1,-2.8 -3.3,-1 -4.9,-2.8 -4.9,-5.3 0,-4.3 2.5,-6.5 7.3,-6.5 0.2,0 2.1,0 3.9,0.6 1.9,0.6 3.5,1.7 4.1,3.5 l 3.1,-1.2 c -1.1,-3.5 -3.9,-5.1 -6.2,-5.8 -2.4,-0.8 -4.4,-0.8 -5,-0.8 -6.5,0 -11.7,3.4 -11.7,10.1 0,3.9 1.5,6.2 4.9,8.1 3.4,1.9 6.1,1.8 9.1,2.7 3.3,1.2 4.9,3.3 4.9,6.3 0,2.3 -0.9,4.1 -2.7,5.2 -1,0.7 -2.4,1.2 -4.9,1.3 -4.8,0.1 -7.7,-3 -8.1,-4.3 l -3.6,1.6 c 1.4,4.3 7.1,6.6 11.6,6.6 2.8,0 6.1,-0.7 8.3,-2.2 2.6,-1.8 3.9,-4.5 3.9,-8.2 0.1,-4.1 -1.5,-7 -4.9,-8.9 m 73.4,6.9 0.1,5.9 h -0.2 l -3,-5.7 -16.1,-24.9 h -5.3 v 36.8 h 4.9 v -24.8 l -0.2,-5.8 h 0.1 l 3.1,5.8 16,24.8 h 5.3 v -36.8 h -4.9 z m 53.4,9 v -14.6 l 14.6,0.5 v -4 l -14.6,0.5 v -13.1 l 18.7,0.6 v -3.6 h -23.6 v 36.8 h 24.1 v -3.6 z m -293,-14.7 14.6,0.5 V 129 l -14.6,0.5 v -13.1 l 18.7,0.6 v -3.6 H 37.2 v 36.8 h 24.1 v -3.6 l -19.2,0.5 v -14.7 z m 77.9,2.9 h -2.3 l 3.5,-11.4 1.9,-5.6 1.8,5.6 3.8,11.4 z m 0.5,-21.9 -13.4,36.8 5,0.1 4.4,-11.4 h 11.4 1.7 l 4.5,11.3 h 5 L 125.6,113.4 Z M 15,130 4.9,130.5 v -14 l 11.2,0.4 c 1.8,0.1 3.2,0.7 4.2,1.8 1,1.2 1.5,2.5 1.5,4.2 0,1.9 -0.6,3.4 -1.8,4.8 -1.2,1.5 -2.9,2.2 -5,2.3 m 7.2,9.2 c -0.7,-2.5 -1.7,-4.7 -3.3,-6.2 2.1,-0.6 3.9,-1.7 5.3,-3.3 1.6,-1.9 2.5,-4.2 2.5,-6.7 0,-2.6 -0.9,-4.8 -2.6,-6.6 -2,-2 -4.7,-3 -8.1,-3 H 0 v 36.8 h 4.9 v -16.5 h 6 2.1 c 1.4,0.1 2.5,1.3 3.4,2.7 1.1,1.8 1.5,4 2.5,7.1 1,2.9 3.4,6.6 7.9,8.3 l 1.5,-3.6 c -4.4,-2.4 -5.1,-5.7 -6.1,-9 m 73,-1.1 0.1,5.9 h -0.2 l -3,-5.7 L 76,113.4 h -5.3 v 36.8 h 4.9 l 0.1,-24.8 -0.2,-5.8 h 0.1 l 3.1,5.8 16,24.8 h 5.3 v -36.8 h -4.9 z"
   id="path6"
    />
<path
   d="m 365.6,116.5 h -1.2 v 2.2 h 1.2 c 0.7,0 1.2,-0.5 1.2,-1.1 -0.1,-0.6 -0.5,-1.1 -1.2,-1.1 m 1.2,5.5 -1.4,-2.6 h -0.9 v 2.6 h -0.9 v -6.3 h 2.1 c 1.1,0 2,0.8 2,1.9 0,0.9 -0.6,1.5 -1.4,1.7 l 1.5,2.7 z m -1.4,-8 c -2.6,0 -4.8,2.2 -4.8,4.9 0,2.7 2.2,4.9 4.8,4.9 2.7,0 4.8,-2.2 4.8,-4.9 0,-2.7 -2.2,-4.9 -4.8,-4.9 m 0,10.6 c -3.2,0 -5.7,-2.6 -5.7,-5.8 0,-3.2 2.6,-5.8 5.7,-5.8 3.2,0 5.7,2.6 5.7,5.8 0,3.3 -2.6,5.8 -5.7,5.8"
   id="path7"
    />
<path
   d="m 231,79.8 -1.4,0.3 c -9.2,3 -13.3,2.9 -17.6,1 -8.1,-3.7 -10.5,-8.9 -12.9,-13.8 -2.3,-4.8 -4.1,-10.3 -10.6,-15.7 -3.2,-2.7 -7.7,-4.1 -9.7,-5.2 4.7,-0.7 8,-2.2 10.5,-3.5 2.4,-1.3 3.8,-2.3 5.5,-4.2 1.8,-1.8 3.9,-5.3 4.5,-7.9 1.6,-6.5 0.9,-9.2 0.6,-11.7 -1.1,-4.6 -2.2,-6.9 -4.1,-9.3 -4,-5.1 -11.3,-7 -15,-7.9 -6.7,-1.4 -8,-1.4 -14.8,-1.6 -6.2,-0.1 -7.2,-0.2 -17,0 -2.6,0.1 -7.2,0.2 -9.7,1 -0.9,0.3 -0.8,1.9 0.1,2.3 4.8,2 6.4,-2.1 7.2,3 1.2,8.2 0.8,8.6 1.1,18 0.2,9.3 0,9.4 0.3,18.7 0.2,9.4 -0.1,9.4 0.1,18.7 0,1.6 0.5,14.2 -1,17.8 -0.3,0.7 -0.6,1.3 -0.9,1.7 v 0 c -0.4,0.6 -0.9,1.4 -3,1.5 h -0.3 v 0 c -1.7,0.1 -2.4,0.2 -2.5,0.2 -0.8,0.2 -1.5,0.6 -1.6,1.3 -0.4,1.6 -0.1,1.8 1.7,1.9 1.9,0.1 7,0.1 15.3,0.1 5.2,0 6.7,-0.1 9.1,0 0.7,0 1.6,0.1 2.2,0.1 0.8,0 2.6,0 3.9,-0.1 0.9,-0.1 1,-1 1,-1.6 l -0.1,-0.8 c -0.1,-0.4 -0.6,-0.9 -3.2,-1.1 -0.8,-0.1 -0.9,-0.1 -1.8,-0.2 -1.7,-0.2 -2.8,-0.9 -3.2,-1.1 -0.2,-0.1 -1.1,-0.8 -1.8,-1.4 -2.5,-2.3 -1.7,-6.8 -1.9,-15.1 -0.2,-8.3 -0.5,-7.7 -0.1,-16.1 0.2,-3.7 8.6,-2.9 9.7,-2.9 4.1,-0.1 7.7,2.8 11.1,10.5 1.9,4.3 4.2,10.8 8.4,16.9 3.3,4.7 6.4,9.4 13.2,12 4.2,1.6 12.2,1.8 19.1,0.2 6,-1.8 8.9,-3.8 9.5,-4.2 0.7,-0.9 0.4,-1.6 0.1,-1.8 M 171.8,43.6 c -3.2,0 -4.4,-0.1 -7.6,-0.1 -2,0 -3.3,-0.9 -3.5,-2.9 -0.4,-5.5 0,-6.9 -0.2,-16.3 -0.2,-9.4 0.2,-9.9 0,-17.3 -0.1,-1.9 1.5,-2.5 3.4,-2.6 3,-0.2 2.7,-0.2 5.5,-0.2 2.4,0 5.7,0.3 9.1,1.6 2.1,0.8 4,2.3 5.4,3.9 2.4,3 4.4,7 4.5,14.1 0,3.4 0,4.4 -0.9,7.2 -0.8,2.7 -2.1,4.5 -3.5,6.2 -1.5,1.8 -3.3,2.9 -5.3,4.2 -2.1,1.2 -3.9,2.2 -6.9,2.2"
   id="path8"
    />
</svg>
